<?xml version="1.0" encoding="UTF-8" standalone="no"?>
<svg
   xmlns:dc="http://purl.org/dc/elements/1.1/"
   xmlns:cc="http://creativecommons.org/ns#"
   xmlns:rdf="http://www.w3.org/1999/02/22-rdf-syntax-ns#"
   xmlns:svg="http://www.w3.org/2000/svg"
   xmlns="http://www.w3.org/2000/svg"
   xmlns:sodipodi="http://sodipodi.sourceforge.net/DTD/sodipodi-0.dtd"
   xmlns:inkscape="http://www.inkscape.org/namespaces/inkscape"
   id="Capa_1"
   enable-background="new 0 0 551.13 551.13"
   height="512"
   viewBox="0 0 551.13 551.13"
   width="512"
   version="1.1"
   sodipodi:docname="menu.svg"
   inkscape:version="0.92.4 (5da689c313, 2019-01-14)">
  <metadata
     id="metadata10">
    <rdf:RDF>
      <cc:Work
         rdf:about="">
        <dc:format>image/svg+xml</dc:format>
        <dc:type
           rdf:resource="http://purl.org/dc/dcmitype/StillImage" />
      </cc:Work>
    </rdf:RDF>
  </metadata>
  <defs
     id="defs8" />
  <sodipodi:namedview
     pagecolor="#ffffff"
     bordercolor="#666666"
     borderopacity="1"
     objecttolerance="10"
     gridtolerance="10"
     guidetolerance="10"
     inkscape:pageopacity="0"
     inkscape:pageshadow="2"
     inkscape:window-width="640"
     inkscape:window-height="480"
     id="namedview6"
     showgrid="false"
     inkscape:zoom="0.4609375"
     inkscape:cx="256"
     inkscape:cy="256"
     inkscape:window-x="0"
     inkscape:window-y="0"
     inkscape:window-maximized="0"
     inkscape:current-layer="Capa_1" />
  <path
     id="path-1_20_"
     d="m275.565 137.783c-37.995 0-68.891-30.897-68.891-68.891 0-37.995 30.897-68.892 68.891-68.892 37.995 0 68.891 30.897 68.891 68.891 0 37.995-30.896 68.892-68.891 68.892zm0-103.337c-18.989 0-34.446 15.457-34.446 34.446s15.457 34.446 34.446 34.446 34.446-15.457 34.446-34.446-15.457-34.446-34.446-34.446z"
     transform="translate(6)"
     style="fill:#ffffff" />
  <path
     id="path-1_19_"
     d="m275.565 344.456c-37.995 0-68.891-30.897-68.891-68.891 0-37.995 30.897-68.891 68.891-68.891 37.995 0 68.891 30.897 68.891 68.891 0 37.995-30.896 68.891-68.891 68.891zm0-103.337c-18.989 0-34.446 15.457-34.446 34.446s15.457 34.446 34.446 34.446 34.446-15.457 34.446-34.446-15.457-34.446-34.446-34.446z"
     transform="translate(6 6)"
     style="fill:#ffffff" />
  <path
     id="path-1_18_"
     d="m275.565 551.13c-37.995 0-68.891-30.897-68.891-68.891 0-37.995 30.897-68.891 68.891-68.891 37.995 0 68.891 30.897 68.891 68.891s-30.896 68.891-68.891 68.891zm0-103.337c-18.989 0-34.446 15.457-34.446 34.446s15.457 34.446 34.446 34.446 34.446-15.457 34.446-34.446-15.457-34.446-34.446-34.446z"
     transform="translate(6 12)"
     style="fill:#ffffff" />
</svg>
